<svg xmlns="http://www.w3.org/2000/svg" viewBox="0 0 180 180" width="180" height="180">
  <defs>
    <linearGradient id="appleGradient" x1="0%" y1="0%" x2="100%" y2="100%">
      <stop offset="0%" style="stop-color:#4ECDC4"/>
      <stop offset="100%" style="stop-color:#44A08D"/>
    </linearGradient>
  </defs>
  <!-- Fond arrondi pour iOS -->
  <rect width="180" height="180" rx="40" fill="url(#appleGradient)"/>
  
  <!-- Avion central plus grand -->
  <g transform="translate(90,90) scale(3.5)" fill="white" opacity="0.95">
    <!-- Corps principal -->
    <path d="M-8,-2 L6,-1 L8,1 L6,3 L-8,2 Z"/>
    <!-- Ailes -->
    <path d="M-4,-6 L-2,-2 L-6,-2 Z"/>
    <path d="M-4,6 L-2,2 L-6,2 Z"/>
    <!-- Queue -->
    <path d="M-8,-4 L-6,-2 L-8,0 Z"/>
    <path d="M-8,4 L-6,2 L-8,0 Z"/>
    <!-- Hublots -->
    <circle cx="-2" cy="0" r="1" fill="#4ECDC4" opacity="0.7"/>
    <circle cx="1" cy="0" r="1" fill="#4ECDC4" opacity="0.7"/>
  </g>
  
  <!-- Éléments décoratifs -->
  <circle cx="45" cy="45" r="3" fill="white" opacity="0.6"/>
  <circle cx="135" cy="60" r="2.5" fill="white" opacity="0.5"/>
  <circle cx="30" cy="135" r="2" fill="white" opacity="0.4"/>
  <circle cx="150" cy="150" r="2.5" fill="white" opacity="0.3"/>
</svg>
