<svg xmlns="http://www.w3.org/2000/svg" viewBox="0 0 32 32" width="32" height="32">
  <!-- Fond circulaire avec gradient voyage -->
  <defs>
    <linearGradient id="travelGradient" x1="0%" y1="0%" x2="100%" y2="100%">
      <stop offset="0%" style="stop-color:#4ECDC4;stop-opacity:1" />
      <stop offset="100%" style="stop-color:#44A08D;stop-opacity:1" />
    </linearGradient>
  </defs>
  
  <!-- Fond -->
  <circle cx="16" cy="16" r="16" fill="url(#travelGradient)"/>
  
  <!-- Avion stylisé -->
  <g transform="translate(16,16) scale(0.8)">
    <!-- Corps de l'avion -->
    <path d="M-8,-2 L6,-1 L8,1 L6,3 L-8,2 Z" fill="white" opacity="0.9"/>
    <!-- Ailes -->
    <path d="M-4,-6 L-2,-2 L-6,-2 Z" fill="white" opacity="0.8"/>
    <path d="M-4,6 L-2,2 L-6,2 Z" fill="white" opacity="0.8"/>
    <!-- Queue -->
    <path d="M-8,-4 L-6,-2 L-8,0 Z" fill="white" opacity="0.7"/>
    <path d="M-8,4 L-6,2 L-8,0 Z" fill="white" opacity="0.7"/>
    <!-- Hublots -->
    <circle cx="-2" cy="0" r="1" fill="#4ECDC4" opacity="0.6"/>
    <circle cx="1" cy="0" r="1" fill="#4ECDC4" opacity="0.6"/>
  </g>
  
  <!-- Petites étoiles/points de destination -->
  <circle cx="8" cy="8" r="1" fill="white" opacity="0.6"/>
  <circle cx="24" cy="12" r="0.8" fill="white" opacity="0.5"/>
  <circle cx="6" cy="24" r="0.7" fill="white" opacity="0.4"/>
</svg>
